<svg width="221" height="221" viewBox="0 0 221 221" fill="none" xmlns="http://www.w3.org/2000/svg">
<path d="M157.645 98.9465C157.664 98.3715 157.673 97.794 157.673 97.2143C157.673 68.9294 134.832 46 106.656 46C84.3046 46 65.3104 60.429 58.4124 80.5142C53.4583 77.919 47.8249 76.4517 41.85 76.4517C22.0506 76.4517 6 92.5643 6 112.44C6 132.316 22.0506 148.429 41.85 148.429H106.656C106.679 148.429 106.702 148.429 106.724 148.429H145.263C159.732 148.429 171.462 136.654 171.462 122.129C171.462 112.1 165.869 103.382 157.645 98.9465Z" fill="#5E5A58"/>
<path d="M200.969 119.599C200.99 118.973 201 118.345 201 117.714C201 86.9441 176.152 62 145.5 62C121.185 62 100.522 77.6968 93.0176 99.5468C87.6283 96.7236 81.4999 95.1274 75 95.1274C53.4609 95.1274 36 112.656 36 134.278C36 155.9 53.4609 173.429 75 173.429H187.5C203.24 173.429 216 160.619 216 144.818C216 133.908 209.917 124.424 200.969 119.599Z" fill="white"/>
</svg>
