<svg width="240" height="240" viewBox="0 0 240 240" fill="none" xmlns="http://www.w3.org/2000/svg">
<path fill-rule="evenodd" clip-rule="evenodd" d="M115.259 94.032L97.8642 77.2791C95.8193 75.3097 95.8003 72.1351 97.8534 70.1577C99.8922 68.1941 103.201 68.197 105.248 70.1682L115.259 79.8102V49.8961C115.259 47.1103 117.576 44.8521 120.48 44.8521C123.363 44.8521 125.701 47.08 125.701 49.8961V79.971L135.879 70.1682C137.924 68.1988 141.22 68.1804 143.273 70.1577C145.312 72.1214 145.309 75.3079 143.263 77.2791L125.701 94.1928V170.518L143.32 187.487C145.367 189.459 145.37 192.645 143.331 194.609C141.278 196.586 137.981 196.568 135.937 194.598L125.701 184.74V214.956C125.701 217.742 123.383 220 120.48 220C117.596 220 115.259 217.772 115.259 214.956V184.76L105.044 194.598C102.997 196.569 99.6885 196.572 97.6497 194.609C95.5966 192.631 95.6157 189.457 97.6605 187.487L115.259 170.538V94.032Z" fill="white"/>
<path fill-rule="evenodd" clip-rule="evenodd" d="M155.639 146.771L178.733 140.07C181.448 139.282 184.192 140.853 184.874 143.621C185.55 146.37 183.901 149.237 181.183 150.025L167.892 153.882L191.454 168.982C193.854 170.375 194.646 173.513 193.201 176.03C191.765 178.529 188.682 179.441 186.256 178.033L162.555 162.852L165.933 176.576C166.612 179.333 164.987 182.2 162.261 182.991C159.554 183.776 156.811 182.18 156.131 179.421L150.302 155.741L84.5444 117.579L61.1531 124.366C58.4359 125.155 55.6891 123.564 55.0124 120.815C54.331 118.047 55.9878 115.199 58.7026 114.411L72.2917 110.468L48.4697 95.2166C46.0696 93.8238 45.2777 90.686 46.7232 88.1693C48.1587 85.67 51.2419 84.7579 53.6681 86.1659L77.4729 101.407L74.0825 87.6336C73.4032 84.874 75.0479 82.0046 77.7547 81.2192C80.4804 80.4283 83.206 82.0321 83.8847 84.7892L89.7257 108.518L155.639 146.771Z" fill="white"/>
<path fill-rule="evenodd" clip-rule="evenodd" d="M89.4864 155.899L83.713 179.353C83.0344 182.11 80.3088 183.714 77.5831 182.923C74.8763 182.138 73.2316 179.269 73.9108 176.509L77.2337 163.01L53.6716 178.11C51.2715 179.503 48.1722 178.624 46.7267 176.107C45.2912 173.608 46.047 170.468 48.4732 169.06L72.1738 153.879L58.6609 149.958C55.9461 149.17 54.2893 146.322 54.9707 143.554C55.6474 140.805 58.3943 139.214 61.1114 140.003L84.4266 146.768L150.185 108.605L156.032 84.8487C156.712 82.0891 159.456 80.4932 162.162 81.2787C164.888 82.0696 166.513 84.936 165.835 87.6931L162.437 101.494L186.259 86.2434C188.659 84.8505 191.759 85.73 193.204 88.2467C194.64 90.746 193.884 93.886 191.458 95.2941L167.653 110.535L181.215 114.47C183.932 115.259 185.581 118.125 184.905 120.874C184.223 123.643 181.479 125.213 178.764 124.426L155.4 117.646L89.4864 155.899Z" fill="white"/>
</svg>
